# xmcd
#
# Track frame offsets:
#	151
#	12681
#	28705
#	44379
#	59601
#	77492
#	93937
#	107532
#	122748
#	133817
#	153007
#	187851
#	201581
#	214601
#	229328
#	244708
#	257363
#	272115
#	286294
#	303235
#	318534
#	334115
#
# Disc length: 4656 seconds
#
# Revision: 0
# Processed by: cddbd v1.5.2PL0 Copyright (c) Steve Scherf et al.
# Submitted via: EasyCDDAExtractor 15.2.5.1
#
DISCID=36122e16
DTITLE=Slim Dusty
DYEAR=2000
DGENRE=Country
TTITLE0=If We Had Old Ireland Over Here
TTITLE1=Sniff The Diggers Dog
TTITLE2=Namatjira
TTITLE3=The Frog
TTITLE4=Big Frogs In Little Puddles
TTITLE5=Send Ér Down Hughie
TTITLE6=Lights On The Hill
TTITLE7=Letter From Down Under
TTITLE8=Cobb and Co Twitch
TTITLE9=Grandfather Johnson
TTITLE10=The Man From Snowy River
TTITLE11=Old Time Country Halls
TTITLE12=Pushing Time
TTITLE13=The Home Run
TTITLE14=Foggy Mirrors
TTITLE15=Ridin' This Road
TTITLE16=Truckin's In My Blood
TTITLE17=Cattlemen From The High Plains
TTITLE18=Innaminka Muster
TTITLE19=Axe Mark On The Gidgee
TTITLE20=The Mad Cook
TTITLE21=I'm Married To My Bulldog Mack
EXTD=
EXTT0=
EXTT1=
EXTT2=
EXTT3=
EXTT4=
EXTT5=
EXTT6=
EXTT7=
EXTT8=
EXTT9=
EXTT10=
EXTT11=
EXTT12=
EXTT13=
EXTT14=
EXTT15=
EXTT16=
EXTT17=
EXTT18=
EXTT19=
EXTT20=
EXTT21=
PLAYORDER=
